# xmcd
#
# Track frame offsets: 
#        150
#        16442
#        32712
#        53649
#        69132
#        87605
#        102131
#        121139
#        141405
#        160913
#        175971
#        191395
#        210510
#        227232
#        247860
#        265365
#        280893
#        297106
#        312315
#        326165
#
# Disc length: 4595 seconds
#
# Revision: 0
# Processed by: cddbd v1.5.2PL0 Copyright (c) Steve Scherf et al.
# Submitted via: ExactAudioCopy v0.99pb5
#
DISCID=1e11f114
DTITLE=Various Artist - Europe Plus выпуск 4
DYEAR=2001
DGENRE=Pop
TTITLE0=Modjo - Lady (Hear Me Tonight)
TTITLE1=ATB feat York - The Fleids Of Love
TTITLE2=Валерия - Не обижай меня
TTITLE3=John The Whistler - I'm In Love
TTITLE4=Иванушки International - Реви
TTITLE5=Gigi D'Agostino - La Passion
TTITLE6=Plazma - The Sweetest Surrender
TTITLE7=Гости из будущего - Так отважно
TTITLE8=Наталья Ветлицкая - Мальчики
TTITLE9=Craig David - Walking Away
TTITLE10=TT - Потерянный рай
TTITLE11=Sonique - Sky
TTITLE12=Texas - Inner Smile
TTITLE13=Оскар - Ветер (Между мной и тобой) Remix
TTITLE14=Reflex - Встречай новый день
TTITLE15=Peach - Anywhere (Eiffel 65 Radio Mix)
TTITLE16=Sash! - With My Own Eyes
TTITLE17=Татьяна Овсиенко - Свежий ветер
TTITLE18=Billy More - The New Millennium Girl
TTITLE19=Лика - На прозрачном корабле
EXTD=
EXTT0=
EXTT1=
EXTT2=
EXTT3=
EXTT4=
EXTT5=
EXTT6=
EXTT7=
EXTT8=
EXTT9=
EXTT10=
EXTT11=
EXTT12=
EXTT13=
EXTT14=
EXTT15=
EXTT16=
EXTT17=
EXTT18=
EXTT19=
PLAYORDER=
